<svg width="180" height="62" fill="none" xmlns="http://www.w3.org/2000/svg"><path d="M98.2 9.5h3.55V27h-3.425V15.65L93.4 23.775H93l-4.925-8.1V27h-3.45V9.5h3.55l5.025 8.275 5-8.275zM120.761 27h-3.75l-1.05-3.15h-6.975l-1.05 3.15h-3.725l6.125-17.5h4.275l6.15 17.5zm-8.275-13.525l-2.4 7.15h4.8l-2.4-7.15zm18.489 4.125h8.775v1.35c0 2.5-.8 4.525-2.4 6.075-1.6 1.55-3.666 2.325-6.2 2.325-2.7 0-4.941-.875-6.725-2.625-1.766-1.767-2.65-3.917-2.65-6.45 0-2.55.875-4.708 2.625-6.475 1.767-1.767 3.95-2.65 6.55-2.65 1.617 0 3.1.367 4.45 1.1 1.35.733 2.409 1.725 3.175 2.975l-2.95 1.7c-.416-.717-1.05-1.3-1.9-1.75a5.89 5.89 0 00-2.8-.675c-1.683 0-3.058.55-4.125 1.65-1.066 1.067-1.6 2.442-1.6 4.125 0 1.65.542 3.017 1.625 4.1 1.084 1.067 2.534 1.6 4.35 1.6 1.317 0 2.417-.292 3.3-.875.884-.583 1.484-1.4 1.8-2.45h-5.3V17.6zm25.304 9.4h-3.725l-3.525-6.075h-2.625V27h-3.45V9.5h7c1.617 0 2.992.567 4.125 1.7s1.7 2.5 1.7 4.1a5.38 5.38 0 01-.925 3.025 5.821 5.821 0 01-2.45 2.075l3.875 6.6zm-6.325-14.275h-3.55V17.9h3.55c.65 0 1.208-.25 1.675-.75.467-.517.7-1.133.7-1.85 0-.717-.233-1.325-.7-1.825-.467-.5-1.025-.75-1.675-.75zM159.061 27V9.5h3.45V27h-3.45z" fill="#40C63D"/><path d="M98.2 34.5h3.55V52h-3.425V40.65L93.4 48.775H93l-4.925-8.1V52h-3.45V34.5h3.55l5.025 8.275 5-8.275zm11.011 10.275V48.7h7.375V52h-10.825V34.5h10.7v3.3h-7.25v3.725h6.625v3.25h-6.625zm14.007-3.65h3.25c1.716 0 3.108.508 4.175 1.525 1.083 1 1.625 2.3 1.625 3.9s-.542 2.917-1.625 3.95c-1.067 1-2.459 1.5-4.175 1.5h-6.7V34.5h11v3.3h-7.55v3.325zm0 7.65h3.25c.7 0 1.266-.2 1.7-.6.45-.4.675-.942.675-1.625s-.225-1.217-.675-1.6c-.434-.4-1-.6-1.7-.6h-3.25v4.425zm15.374-4V48.7h7.375V52h-10.825V34.5h10.7v3.3h-7.25v3.725h6.625v3.25h-6.625zM147.798 52v-3.2c1.067.15 1.85-.067 2.35-.65.5-.6.75-1.7.75-3.3V34.5h11.9V52h-3.425V37.8h-5.05v6.95c0 3.017-.691 5.058-2.075 6.125-1.183.933-2.666 1.308-4.45 1.125zm22.445-11.75h3.075c1.667 0 3.083.567 4.25 1.7 1.15 1.133 1.725 2.525 1.725 4.175s-.575 3.042-1.725 4.175c-1.167 1.133-2.583 1.7-4.25 1.7h-6.525V34.5h3.45v5.75zm0 8.525h3.075c.733 0 1.342-.25 1.825-.75.483-.5.725-1.133.725-1.9 0-.75-.242-1.375-.725-1.875-.483-.517-1.092-.775-1.825-.775h-3.075v5.3z" fill="#fff"/><path d="M33.2 37.71v5.112H8V37.89h16.344l-11.7-7.092v-.576l11.664-7.092H8v-4.968h25.2v5.112L21.284 30.51l11.916 7.2z" fill="#40C63D"/><path d="M46.8 22.482V17.37H72v4.932H55.656l11.7 7.092v.576l-11.664 7.092H72v4.968H46.8v-5.112l11.916-7.236-11.916-7.2z" fill="#fff"/><path d="M0 2h79.99M0 60.5h77.993M78.5 2v60M39.857 2v60M1.5 2v60" stroke="#fff" stroke-width="3"/></svg>